Marilyn Monroe Let's Make It Legal (1951)       

 
Verenigde Staten
Komedie / Romantiek
77 minuten

geregisseerd door Richard Sale
met Claudette Colbert, Macdonald Carey en Marilyn Monroe

De scheiding tussen de Halsworths eindigt om middernacht. Voordat dit allemaal gebeurt, belemmert een serie van sentimentele gebeurtenissen van beide echter het koppel om uit elkaar te gaan; zelfs een lang verdwenen vlam zit Miriam dwars


English

The divorce of Hugh and Miriam Halsworth becomes final at midnight. Hugh wouldn't dream of calling it off, but can't abandon his rose garden. Things change that afternoon, though, when Miriam's old suitor Victor Macfarland checks into the hotel where Hugh is publicity man. With Miriam's daughter Barbara rooting for Hugh and son-in-law Jerry rooting for Victor, things are unlikely to be resolved by midnight...


Spotinformatie 
Categorie : Beeld 
Formaat : DVD5 
Bron : Retail
Audio : English, Italian 
Subs : Dutch, English, French, Italian, Swedish, Italian
Cover : Yes
 

Video
ID                               : 224 (0xE0)
Format                           : MPEG Video
Format version                   : Version 2
Format profile                   : Main@Main
Format settings, Matrix          : Default
Duration                         : 23mn 11s
Bit rate mode                    : Variable
Bit rate                         : 5 544 Kbps
Nominal bit rate                 : 7 500 Kbps
Width                            : 720 pixels
Height                           : 576 pixels
Display aspect ratio             : 4/3
Frame rate                       : 25.000 fps
Standard                         : PAL
Colorimetry                      : 4:2:0
Scan type                        : Progressive
Scan order                       : Top Field First
Bits/(Pixel*Frame)               : 0.535
Stream size                      : 920 MiB (90%)

Audio #1
ID                               : 128 (0x80)
Format                           : AC-3
Format/Info                      : Audio Coding 3
Duration                         : 23mn 11s
Bit rate mode                    : Constant
Bit rate                         : 192 Kbps
Channel(s)                       : 2 channels
Channel positions                : L R
Sampling rate                    : 48.0 KHz
Video delay                      : -96ms
Stream size                      : 31.8 MiB (3%)

Genre : Komedie
Romantiek


Weblink :  http://www.moviemeter.nl/film/23930 
Weblink :  http://www.imdb.com/title/tt0043736 
*****************************************

Brought to you by 


2Lions Team

meer zien??
Kom dan eens kijken op ons forum 




2Lions the site to be for all your Dutch MOVIES and more

******************************************


DON T HIT AND RUN Niet gelijk afhaken als de FILM binnen is blijf seeden. 

Don`t quit after you finished the download, but keep seeding


There are fake torrents from uploaders who use our team name.
Those are not ours, or members from our team.
We 2Lions-Team are not responsible for the fake posts on our name

Wij 2Lions-Team zijn niet verantwoordelijk voor die zieke FAKE posten die op onze naam worden gedaan

Please check our site !!!	
 

 
 
 
